PathFileType	4	(X/Y/Z)	0_coords_data.trc
DataRate	CameraRate	NumFrames	NumMarkers	Units	OrigDataRate	OrigDataStartFrame	OrigNumFrames
30.0	30.0	8	21	m	30.0	21	62
Frame#	Time	THUMB_TIP	THUMB_IP	THUMB_MCP	THUMB_CMC	INDEX_TIP	INDEX_DIP	INDEX_PIP	INDEX_MCP	MIDDLE_TIP	MIDDLE_DIP	MIDDLE_PIP	MIDDLE_MCP	RING_TIP	RING_DIP	RING_PIP	RING_MCP	PINKY_TIP	PINKY_DIP	PINKY_PIP	PINKY_MCP	WRIST
X1	Y1	Z1	X2	Y2	Z2	X3	Y3	Z3	X4	Y4	Z4	X5	Y5	Z5	X6	Y6	Z6	X7	Y7	Z7	X8	Y8	Z8	X9	Y9	Z9	X10	Y10	Z10	X11	Y11	Z11	X12	Y12	Z12	X13	Y13	Z13	X14	Y14	Z14	X15	Y15	Z15	X16	Y16	Z16	X17	Y17	Z17	X18	Y18	Z18	X19	Y19	Z19	X20	Y20	Z20	X21	Y21	Z21
19	0.6666666666666637	0.5002976700621403	-0.010717853898137064	-0.16524208266869278	0.49964445000634594	-0.013126501287674452	-0.1423997596407785	0.4830678791908971	-0.025487709428516858	-0.11913524087723687	0.4792668735716885	-0.026987294851700594	-0.0747145970295694	0.501796279173522	-0.018915803914036466	-0.0999977301184577	0.5183994157865112	-0.01499074198175121	-0.10607471485088421	0.5298361657064834	0.002310717093307768	-0.12028281458807899	0.49078457034626544	0.019281601284093286	-0.11950945593598977	0.5022380497391746	-0.017493263409838367	-0.08736949042122771	0.5194299471770077	-0.01216100241049134	-0.08937090370235412	0.5370230225716603	0.008281935509728555	-0.10041533837996958	0.49905680647875905	0.03182687033568621	-0.09982339190559553	0.5014110563834269	-0.006721474333135857	-0.07443939129582938	0.5193728423580317	-0.005815470540075363	-0.07319303591735626	0.5397593891816808	0.007336553070054319	-0.07881379765983931	0.5104196933692846	0.03515528574118998	-0.07866820848454231	0.5027423283393289	-0.00871762740526938	-0.05700928006760736	0.5198331431264342	-0.008807239986091231	-0.057955863132222785	0.5364094937685585	0.004045000358557593	-0.058881355710654004	0.512641767123363	0.03093190041728333	-0.055265664026984684	0.4622830810018609	-0.023011742144276925	-0.051989820119430985
20	0.6999999999999968	0.5003270049920066	-0.010700327897482986	-0.1652236724505602	0.49963062530156577	-0.013119802110922674	-0.14238376877613013	0.4830413134354197	-0.02549763503950453	-0.11913717797662027	0.47926577467535214	-0.026993954738309678	-0.07471425220140593	0.5017520516783149	-0.018933204621345734	-0.10001223962546979	0.5183598493232882	-0.015018643113493102	-0.1060832581219715	0.5297821458426959	0.002291328562470052	-0.1202926161581418	0.49074384051652864	0.019292778766452856	-0.11951963347887906	0.5022409766830268	-0.01752374269210666	-0.0873620364527487	0.5194100000604401	-0.012135833111729166	-0.08941022263068993	0.5370019591566548	0.008306479726023941	-0.10045759204610039	0.49902762479141816	0.03183749186036633	-0.09983363816106744	0.5013768139066784	-0.006676144113371585	-0.07446962072041347	0.5193393863939048	-0.005822974474579468	-0.07319757857937143	0.5397400960612065	0.007304710970182038	-0.07882384723042762	0.5104233462798174	0.03514762456519316	-0.07867831786511487	0.5026956992720063	-0.008684457882662144	-0.05697095330090912	0.5197846045455905	-0.008821208312098427	-0.057945948619109955	0.536386100726705	0.003998351454256199	-0.058873973912567545	0.5126550436173405	0.030919225312748266	-0.05527023555257993	0.462283081001861	-0.023011742144276925	-0.051989820119430985
21	0.7333333333333302	0.5003527547676316	-0.010698910167646236	-0.16521227238648378	0.4995905408110559	-0.013141935142271577	-0.14237697823778145	0.4829798324167415	-0.025531482427172958	-0.11915191667243252	0.4792499396530372	-0.027003885926575544	-0.07472433596060207	0.5016229728152946	-0.018923166185728868	-0.10005689237770732	0.518238817103237	-0.015012462595844434	-0.10610834807290309	0.5296749743636697	0.0022803591572699844	-0.12032743580488015	0.4906412400474336	0.01929268056692124	-0.11956284468262696	0.5020836143419213	-0.017556823399730637	-0.08736320812067488	0.5192346827446317	-0.01212120868235711	-0.08943563309876695	0.5368642590905368	0.008287780627717956	-0.10048464858455286	0.49891712339622984	0.03186335371403204	-0.09988868948384283	0.5012469105636632	-0.006645736518751333	-0.07449909199089394	0.5192090467399091	-0.005775086932775286	-0.07323274555944659	0.5396328115718376	0.007313859278447299	-0.07886562192679214	0.5103437584986464	0.03518599462907335	-0.07873804813569074	0.5025674704729624	-0.008646705574679947	-0.05693480363215059	0.5196529251986632	-0.008826582944592709	-0.05796187760602822	0.5362704957238906	0.003969288918963199	-0.05892833096266553	0.5126130394134105	0.03095502240989978	-0.055325776331037246	0.462283081001861	-0.023011742144276925	-0.051989820119430985
22	0.7666666666666633	0.5004865245833631	-0.010709741329840705	-0.16519400447752097	0.4996515178702864	-0.013181873792600052	-0.14236438939369428	0.48299208955201345	-0.02555853082660997	-0.1191673678441329	0.4792269874940388	-0.02700185789255416	-0.07474180298026484	0.5010980956016639	-0.018546032227999554	-0.10013437424328653	0.5178571128750418	-0.015003438925946355	-0.10601530722427427	0.5295512498402648	0.0021411881298316615	-0.1202039913336938	0.4905649731590729	0.01926874569999737	-0.11960977233516396	0.5017112808995231	-0.01755352087725448	-0.08732233473547574	0.5188573666959273	-0.012083183525345653	-0.08934400511381524	0.536708703485105	0.008146417848956644	-0.1003668247656187	0.4988480746155488	0.031864318128556945	-0.09994031693607797	0.5009717469074934	-0.006476981232876766	-0.07453364408671154	0.5189300084676967	-0.0056502622411107595	-0.07318554266471744	0.5394733495793149	0.007265153642520006	-0.07878403777720566	0.5102704942285581	0.03522787957359341	-0.07877839273854564	0.5023061065875059	-0.008352861136274203	-0.05692764221589436	0.5193923573296337	-0.008688588199291414	-0.05790094736655077	0.5360869600839402	0.004001709601369585	-0.05892983006464508	0.5125038977751162	0.031055229048428168	-0.05534797179473161	0.4622830810018609	-0.023011742144276925	-0.051989820119430985
23	0.7999999999999965	0.5005580454865823	-0.010778435077461346	-0.16521002580876012	0.49967707866364075	-0.013271254901259022	-0.14238438788157487	0.4829852384007264	-0.02560604084075535	-0.11918836398815386	0.4792042532994686	-0.02698285997712435	-0.0747620371004874	0.5004772855837252	-0.018137767315501985	-0.1001704343814308	0.5173925382672455	-0.014934984435848508	-0.10579328138970517	0.5293999960294887	0.001997416315390299	-0.11997512174585762	0.4904777966730125	0.019277081407316654	-0.11964095776577882	0.5010201293793144	-0.016939417093022047	-0.08733141101217912	0.5183185499760293	-0.011884926330232082	-0.08912494606564858	0.5365014383010556	0.008023824333582619	-0.10018992546760319	0.49873697809507433	0.031897497014145904	-0.09998690061148302	0.5005222754628627	-0.005777845108857149	-0.07452747614881289	0.5184827057816064	-0.005311201239578733	-0.07304248919101952	0.5392197834804088	0.00729018051203878	-0.07864237896349147	0.510113732227101	0.03535328872486165	-0.07878580795369328	0.5019587131879082	-0.007915086503083035	-0.05678274619107132	0.5190423723530198	-0.008321216007999177	-0.05777453667072535	0.5358610786472663	0.004189008827414908	-0.058973457917207095	0.512293566666635	0.03124997376548877	-0.05534578556938813	0.4622830810018609	-0.023011742144276925	-0.051989820119430985
24	0.8333333333333297	0.5005218735648851	-0.011069131437775215	-0.16524974782630386	0.4996453423462842	-0.013506932898801893	-0.14241799762927704	0.48292362133818445	-0.02572638515253156	-0.11918248530124553	0.4792342031797008	-0.02695739664082697	-0.0747441819541606	0.5003266223679556	-0.01790039634914886	-0.10005423812567493	0.5172688757261509	-0.014762864568359513	-0.1056324049814849	0.5293499317147483	0.0020360942664120474	-0.1199101114243285	0.4903999490725819	0.019254842023799235	-0.11968723961719774	0.5007024843462385	-0.0162036213648461	-0.08712877358423798	0.5181473545503628	-0.01167845558904912	-0.08891745417696995	0.5363441089106515	0.008098371219333544	-0.10019419138870572	0.49855731254638724	0.031937253532278276	-0.10007743696609972	0.5002048348173734	-0.0048940411530735695	-0.07428521008533884	0.51818590740408	-0.004867310661745505	-0.07298894077982154	0.5389310727246275	0.007639044194304723	-0.07876900851625068	0.5097417375516579	0.0356156856346449	-0.0788742695189582	0.5017889961379954	-0.007234720038072795	-0.05663019680793718	0.5188527054967289	-0.0077708344614945135	-0.05787213249293499	0.5356791885747745	0.0047074848997564755	-0.05927677911855783	0.5119266252914274	0.031579129089341906	-0.05545396248433221	0.4622830810018609	-0.023011742144276925	-0.051989820119430985
25	0.8666666666666629	0.5004362002296349	-0.011510909035863048	-0.16532060148332262	0.4996207487851263	-0.013822445186785437	-0.1424734607527054	0.4828652291650555	-0.025875322691016556	-0.11917537700898467	0.47926476489440595	-0.026934469487566393	-0.07472535040495287	0.5008696833392842	-0.017934838997883507	-0.09981474844473864	0.5176848328644703	-0.014522989771522665	-0.10561216436066273	0.529411504936439	0.002369465488807121	-0.120073836131045	0.49030136318662954	0.019219630913551944	-0.11975005925024546	0.5010783940803435	-0.015623205535412854	-0.08672546859760327	0.518564346227588	-0.011431570081071762	-0.08888687316921556	0.5363423667002043	0.00852899683944297	-0.10050269454727112	0.49832200894349765	0.03199181193501699	-0.10019184917904345	0.5003214717308925	-0.0044790378559915744	-0.07373565973077295	0.5183371358110157	-0.004511234791340635	-0.07307625764591269	0.5387585780551023	0.008390060233961827	-0.07913441432443619	0.5092129152350237	0.03598991386351991	-0.0789836756459299	0.5019815258363765	-0.00675334022080043	-0.05668256446328873	0.519021908297854	-0.007233473586068406	-0.05823009072094254	0.5356118189126384	0.0055427787207762425	-0.05976445110406786	0.5114544797235412	0.031996630139589755	-0.05558113191779346	0.4622830810018609	-0.023011742144276925	-0.051989820119430985
26	0.8999999999999961	0.5002963300939349	-0.01211307289234187	-0.16544115796134123	0.4995797415849782	-0.014258351477025477	-0.14257449487502866	0.482786525507655	-0.0260710945826933	-0.11918075652264426	0.4792673658197888	-0.02695223570167149	-0.0747203347362988	0.5024347302192025	-0.01825172419400689	-0.09967855550110966	0.5189252912392694	-0.014189623080895442	-0.10596828775219208	0.5296625365733836	0.0031159044099434707	-0.12070735535834892	0.4902120826851092	0.019132984941782727	-0.11984080285231896	0.5024808251480338	-0.015687851359009852	-0.08651973787851303	0.5198156863455181	-0.011232652123940201	-0.08928628573455893	0.5365733187239219	0.009403446488882139	-0.10123378510104314	0.49806768284477954	0.03204478405871947	-0.10032068073045847	0.5013380303064603	-0.00513455590736267	-0.07332874656244237	0.5193469857146225	-0.004329840207991653	-0.07350182963502178	0.5389767018775187	0.00960130371759571	-0.07988755209130682	0.5086639654672888	0.03634666956425281	-0.07914981836400614	0.5028917418201505	-0.006932900909132345	-0.05731522595140359	0.5199225384188135	-0.006780893763860485	-0.05902661750296295	0.5359176353196682	0.0067340153194496155	-0.06054850008783291	0.5110064895404223	0.032379701898334945	-0.05579276388165555	0.462283081001861	-0.023011742144276925	-0.051989820119430985
